# xmcd
#
# Track frame offsets: 
#        150
#        12914
#        27428
#        41963
#        55582
#        68246
#        81939
#        96981
#        110584
#        123429
#        134487
#        148573
#        159931
#        171826
#        185867
#        199092
#        213079
#        225946
#        238085
#        251171
#        265282
#        280670
#        293876
#        306983
#        321175
#
# Disc length: 4479 seconds
#
# Revision: 0
# Processed by: cddbd v1.4PL0 Copyright (c) Steve Scherf et al.
# Submitted via: ExactAudioCopy v0.90b4
#
DISCID=76117d19
DTITLE=Sleepy John Estes - Working Man Blues
DYEAR=1999
DGENRE=Blues
TTITLE0=New Someday Baby
TTITLE1=Broken Hearted, Ragged and Dirty Too
TTITLE2=Divin' Duck Blues
TTITLE3=Working Man Blues
TTITLE4=Everybody Ought To Make A Change
TTITLE5=Expressman Blues
TTITLE6=Who's Been Telling You Buddy Brown Blues
TTITLE7=Milk Cow Blues
TTITLE8=Poor John Blues
TTITLE9=Liquor Store Blues
TTITLE10=Brownsville Blues
TTITLE11=Little Laura Blues
TTITLE12=Jack And Jill Blues
TTITLE13=Poor Man's Friend
TTITLE14=The Girl I Love She Got Long Curly Hair
TTITLE15=Fire Department Blues
TTITLE16=My Black Gal Blues
TTITLE17=Easin' Back To Tennessee
TTITLE18=Sweet Mama
TTITLE19=Down South Blues
TTITLE20=Black Mattie Blues
TTITLE21=Hobo Jungle Blues
TTITLE22=Mailman Blues
TTITLE23=Lawyer Clark Blues
TTITLE24=Whatcha Doin'
EXTD=
EXTT0=
EXTT1=
EXTT2=
EXTT3=
EXTT4=
EXTT5=
EXTT6=
EXTT7=
EXTT8=
EXTT9=
EXTT10=
EXTT11=
EXTT12=
EXTT13=
EXTT14=
EXTT15=
EXTT16=
EXTT17=
EXTT18=
EXTT19=
EXTT20=
EXTT21=
EXTT22=
EXTT23=
EXTT24=
PLAYORDER=
